<svg xmlns="http://www.w3.org/2000/svg" width="250" height="250" fill="none" viewBox="0 0 250 250">
<!-- SVG created with Arrow, by QuiverAI (https://quiver.ai) -->
  <path d="m19.27 173.3h5.41v9.95c-3 2.35-6.72 3.53-10.1 3.53-7.82 0-11.83-5.83-11.83-12.85s5.86-12.12 12.34-12.12c4.89 0 7.78 0.99 10.29 3.96l-2.97 3.95c-2-2.51-3.92-3.16-6.6-3.16-4.89 0-7.5 3.7-7.5 7.65 0 4.69 2.61 8.11 7.11 8.11 1.29 0 2.54-0.22 3.85-0.92v-8.1z" fill="url(#paint0_linear_401_573)"/>
  <path d="m30.27 162.3h11.88c6.81 0 9.06 4.56 9.06 8.09s-1.89 6.13-4.75 7.43l5.03 7.96h-5.67l-4.21-6.86h-5.85v6.86h-5.49v-23.48zm11.21 12.02c3.21 0 4.27-2.23 4.27-4.1 0-2.06-1.29-3.55-3.8-3.55h-6.19v7.65h5.72z" fill="url(#paint1_linear_401_573)"/>
  <path d="m56.47 162.3h17.44v4.37h-12.29v5.26h10.87v3.76h-10.87v5.73h12.64v4.36h-17.79v-23.48z" fill="url(#paint2_linear_401_573)"/>
  <path d="m79.21 162.3h18.42v4.37h-12.82v5.26h11.6v3.76h-11.6v5.73h13.26v4.36h-18.86v-23.48z" fill="url(#paint3_linear_401_573)"/>
  <path d="m102.4 162.3h4.79l11.98 14.32 0.12-14.32h5.15v23.48h-4.79l-11.95-14.39-0.1 14.39h-5.2v-23.48z" fill="url(#paint4_linear_401_573)"/>
  <path d="m137.9 162.3h4.21l10.57 23.13h-3.79l-2.72-5.91h-12.6l-2.65 5.91h-3.63l10.61-23.13zm6.94 14.22-4.96-11.44-4.96 11.44h9.92z" fill="url(#paint5_linear_401_573)"/>
  <path d="m163.1 173.5-8.48-11.24h4.43l6.65 8.93 6.94-8.93h4.11l-8.68 11.27 9.09 11.86h-4.36l-7.13-9.58-7 9.58h-4.33l8.76-11.89z" fill="url(#paint6_linear_401_573)"/>
  <path d="m180.7 162.3h3.72v23.13h-3.72v-23.13z" fill="url(#paint7_linear_401_573)"/>
  <path d="m189.4 183 1.12-2.94c1.83 1.69 4.79 2.78 8.17 2.78 2.9 0 5.28-1.31 5.28-3.85 0-2.29-2.03-3.1-5.03-3.67l-2.41-0.48c-3.72-0.75-6.58-2.29-6.58-6.24 0-4.08 3.51-6.53 8.3-6.53 3.57 0 6.11 0.96 7.97 2.2l-1.18 2.94c-1.76-1.37-3.94-2.24-7-2.24-3 0-4.89 1.4-4.89 3.56 0 2.1 1.6 2.91 4.35 3.51l2.61 0.58c4.15 0.96 7.08 2.47 7.08 6.13 0 4.34-3.63 6.98-8.55 6.98-3.44 0-6.85-0.99-9.24-2.73z" fill="url(#paint8_linear_401_573)"/>
  <path d="m211.2 184.3 0.61-1.65c0.94 0.79 2.29 1.27 3.83 1.27 1.2 0 2.14-0.57 2.14-1.63 0-0.97-0.87-1.35-2.31-1.66l-0.77-0.18c-1.81-0.43-3.06-1.25-3.06-3.05 0-2.02 1.62-3.22 4-3.22 1.47 0 2.7 0.42 3.7 1.04l-0.69 1.61c-0.87-0.64-1.91-1.03-3.07-1.03-1.19 0-2.02 0.59-2.02 1.54 0 0.88 0.76 1.25 1.91 1.54l0.83 0.21c1.89 0.48 3.39 1.18 3.39 3.01 0 2.07-1.72 3.42-4.15 3.42-1.57 0-3.14-0.49-4.34-1.22z" fill="url(#paint9_linear_401_573)"/>
  <path d="m221 184.4c0-0.69 0.51-1.16 1.17-1.16 0.65 0 1.16 0.47 1.16 1.16 0 0.66-0.51 1.09-1.16 1.09-0.66 0-1.17-0.43-1.17-1.09z" fill="url(#paint10_linear_401_573)"/>
  <path d="m229.1 174.4h2l5.07 10.97h-1.96l-1.31-3.02h-5.35l-1.28 3.02h-1.93l4.76-10.97zm3.1 6.38-2.22-5.12-2.28 5.12h4.5z" fill="url(#paint11_linear_401_573)"/>
  <path d="m236.7 184.4c0-0.69 0.51-1.16 1.17-1.16 0.65 0 1.16 0.47 1.16 1.16 0 0.66-0.51 1.09-1.16 1.09-0.66 0-1.17-0.43-1.17-1.09z" fill="url(#paint12_linear_401_573)"/>
  <path d="m239.6 184.3 0.62-1.65c0.94 0.79 2.28 1.27 3.82 1.27 1.2 0 2.14-0.57 2.14-1.63 0-0.97-0.87-1.35-2.3-1.66l-0.77-0.18c-1.82-0.43-3.07-1.25-3.07-3.05 0-2.02 1.63-3.22 4-3.22 1.47 0 2.71 0.42 3.71 1.04l-0.7 1.61c-0.87-0.64-1.91-1.03-3.06-1.03-1.19 0-2.03 0.59-2.03 1.54 0 0.88 0.77 1.25 1.92 1.54l0.83 0.21c1.89 0.48 3.39 1.18 3.39 3.01 0 2.07-1.72 3.42-4.16 3.42-1.57 0-3.14-0.49-4.34-1.22z" fill="url(#paint13_linear_401_573)"/>
  <path d="m110 63.46c-4.01 7.48-9.94 8.4-20.27 10.63-12.47 2.92-21.7 10.82-22.14 19.27 6.09-6.98 16.47-8.58 22.97-10.78 4.63-1.57 7.17-3.47 10.23-5.47-5.93 6.6-12.81 9.08-21.67 12.82-9.06 3.86-15.06 9.16-16.54 17.54 0-15.18 7.51-31.06 23.86-34.42-16.35-0.32-35.29 11.86-35.29 36.86 0 17 11.88 33.87 33.5 33.87 14.18 0 25.51-6.82 25.51-17.97 0-7.9-5.28-13.95-12.97-15.75-2.29-0.55-5.42-0.9-7.9-1.35 5.48-1.44 11.77 0 16.07 3.46 3.57 2.96 5.23 5.64 5.74 10.65 1.63-9.73-5.85-19.17-15.91-19.17-7.41 0-13.2 4.46-17.96 9.44 5.06-1.48 8.02 0 11.59 2.48 4.21 2.83 8.16 2.67 14.09 1.23 0.51 7.21-2.03 18.39-17.56 18.39-11.43 0-21.74-10.18-21.74-20.91 0-9.09 4.47-17.6 14.32-18.87 18.35-1.6 31.75-12.3 32.07-31.95z" fill="url(#paint14_linear_401_573)"/>
  <path d="m108.1 105.1 9.06-21.44c3.79-7.96 9.62-10.6 14.97-10.6-2.38 3.24-2.89 6.7-1 11.29l5.25 14.2c-3.44 2.19-5.59 4.8-7.32 9.42l-6.22-17.06-8.65 24.11c-0.97-4.07-2.93-7.27-6.09-9.92z" fill="url(#paint15_linear_401_573)"/>
  <path d="m134.2 121 5.52 12.45c3.28 7.21 7.23 9.27 12.38 9.27h7.65c-6.45-4.84-9.05-12.71-14.91-24.96-2.97 1.51-6.44 2.47-10.64 3.24z" fill="url(#paint16_linear_401_573)"/>
  <path d="m155.6 89.33c-2.71 5.98-7.77 7.42-12.66 9.18-7.17 2.64-11.67 6.5-12.99 12.81 6.91-1.6 13.85-4.56 19.2-10.91-3.57 7.7-10.98 12.68-21.04 15.64-11.06 3.46-15.82 9.06-18.46 19.24 5.35-10.08 13.2-13.18 20.61-14.98 15.25-3.46 26.55-10.28 25.34-30.98z" fill="url(#paint17_linear_401_573)"/>
  <defs>
    <linearGradient id="paint0_linear_401_573" x1="2.748" x2="25.38" y1="174.3" y2="174.3" gradientUnits="userSpaceOnUse">
      <stop stop-color="#124B64" offset="0"/>
      <stop stop-color="#174A53" offset="1"/>
    </linearGradient>
    <linearGradient id="paint1_linear_401_573" x1="30.27" x2="51.49" y1="174" y2="174" gradientUnits="userSpaceOnUse">
      <stop stop-color="#124B64" offset="0"/>
      <stop stop-color="#174A53" offset="1"/>
    </linearGradient>
    <linearGradient id="paint2_linear_401_573" x1="56.47" x2="74.26" y1="174" y2="174" gradientUnits="userSpaceOnUse">
      <stop stop-color="#124B64" offset="0"/>
      <stop stop-color="#174A53" offset="1"/>
    </linearGradient>
    <linearGradient id="paint3_linear_401_573" x1="79.21" x2="98.07" y1="174" y2="174" gradientUnits="userSpaceOnUse">
      <stop stop-color="#124B64" offset="0"/>
      <stop stop-color="#174A53" offset="1"/>
    </linearGradient>
    <linearGradient id="paint4_linear_401_573" x1="102.4" x2="124.5" y1="174" y2="174" gradientUnits="userSpaceOnUse">
      <stop stop-color="#124B64" offset="0"/>
      <stop stop-color="#174A53" offset="1"/>
    </linearGradient>
    <linearGradient id="paint5_linear_401_573" x1="127.3" x2="152.7" y1="173.9" y2="173.9" gradientUnits="userSpaceOnUse">
      <stop stop-color="#85B463" offset="0"/>
      <stop stop-color="#7DA563" offset="1"/>
    </linearGradient>
    <linearGradient id="paint6_linear_401_573" x1="154.4" x2="177.2" y1="173.9" y2="173.9" gradientUnits="userSpaceOnUse">
      <stop stop-color="#85B463" offset="0"/>
      <stop stop-color="#7DA563" offset="1"/>
    </linearGradient>
    <linearGradient id="paint7_linear_401_573" x1="180.7" x2="184.4" y1="173.9" y2="173.9" gradientUnits="userSpaceOnUse">
      <stop stop-color="#85B463" offset="0"/>
      <stop stop-color="#7DA563" offset="1"/>
    </linearGradient>
    <linearGradient id="paint8_linear_401_573" x1="189.4" x2="207.2" y1="173.9" y2="173.9" gradientUnits="userSpaceOnUse">
      <stop stop-color="#85B463" offset="0"/>
      <stop stop-color="#7DA563" offset="1"/>
    </linearGradient>
    <linearGradient id="paint9_linear_401_573" x1="211.2" x2="219.7" y1="179.8" y2="179.8" gradientUnits="userSpaceOnUse">
      <stop stop-color="#36756E" offset="0"/>
      <stop stop-color="#2D645E" offset="1"/>
    </linearGradient>
    <linearGradient id="paint10_linear_401_573" x1="221" x2="223.3" y1="184.4" y2="184.4" gradientUnits="userSpaceOnUse">
      <stop stop-color="#36756E" offset="0"/>
      <stop stop-color="#2D645E" offset="1"/>
    </linearGradient>
    <linearGradient id="paint11_linear_401_573" x1="224.4" x2="236.2" y1="179.8" y2="179.8" gradientUnits="userSpaceOnUse">
      <stop stop-color="#36756E" offset="0"/>
      <stop stop-color="#2D645E" offset="1"/>
    </linearGradient>
    <linearGradient id="paint12_linear_401_573" x1="236.7" x2="239" y1="184.4" y2="184.4" gradientUnits="userSpaceOnUse">
      <stop stop-color="#36756E" offset="0"/>
      <stop stop-color="#2D645E" offset="1"/>
    </linearGradient>
    <linearGradient id="paint13_linear_401_573" x1="239.6" x2="248.1" y1="179.8" y2="179.8" gradientUnits="userSpaceOnUse">
      <stop stop-color="#36756E" offset="0"/>
      <stop stop-color="#2D645E" offset="1"/>
    </linearGradient>
    <linearGradient id="paint14_linear_401_573" x1="51.18" x2="110" y1="103.6" y2="103.6" gradientUnits="userSpaceOnUse">
      <stop stop-color="#124B64" offset="0"/>
      <stop stop-color="#93C746" offset="1"/>
    </linearGradient>
    <linearGradient id="paint15_linear_401_573" x1="108.1" x2="136.4" y1="90.5" y2="90.5" gradientUnits="userSpaceOnUse">
      <stop stop-color="#80B55A" offset="0"/>
      <stop stop-color="#98C341" offset="1"/>
    </linearGradient>
    <linearGradient id="paint16_linear_401_573" x1="134.2" x2="159.8" y1="130" y2="130" gradientUnits="userSpaceOnUse">
      <stop stop-color="#70AA62" offset="0"/>
      <stop stop-color="#93B963" offset="1"/>
    </linearGradient>
    <linearGradient id="paint17_linear_401_573" x1="109.6" x2="155.7" y1="111.3" y2="111.3" gradientUnits="userSpaceOnUse">
      <stop stop-color="#4A785B" offset="0"/>
      <stop stop-color="#99C44A" offset="1"/>
    </linearGradient>
  </defs>
</svg>